<svg width="160" height="56" viewBox="0 0 160 56" fill="none" xmlns="http://www.w3.org/2000/svg">
<rect width="160" height="56" rx="8" fill="#262626"/>
<g clip-path="url(#clip0_13044_40728)">
<path d="M107.361 23.2095C104.553 23.2095 102.268 25.3761 102.268 28.04C102.268 30.704 104.552 32.8706 107.361 32.8706C110.17 32.8706 112.455 30.704 112.455 28.04C112.455 25.3761 110.17 23.2095 107.361 23.2095ZM107.397 30.2876H107.396C106.607 30.299 106.007 30.0992 105.605 29.696C105.225 29.3139 105.032 28.7575 105.032 28.04C105.032 26.591 105.851 25.7925 107.338 25.7925C108.854 25.7925 109.724 26.605 109.724 28.0215C109.723 29.483 108.898 30.2876 107.397 30.2876Z" fill="white"/>
<path d="M101.112 21.7664L101.523 21.9495C102.332 22.3105 103.28 21.9478 103.641 21.1387C104.002 20.3296 103.639 19.3815 102.83 19.0205L102.42 18.8374C101.611 18.4765 100.663 18.8392 100.302 19.6482C99.9407 20.4573 100.304 21.4054 101.112 21.7664Z" fill="white"/>
<path d="M81.1153 21.1387C81.4762 21.9478 82.4244 22.3105 83.2334 21.9495L83.6437 21.7664C84.4527 21.4054 84.8154 20.4573 84.4545 19.6482C84.0935 18.8392 83.1454 18.4765 82.3363 18.8374L81.9261 19.0205C81.117 19.3824 80.7543 20.3305 81.1153 21.1387Z" fill="white"/>
<path d="M90.9555 15.6968C89.6173 15.7698 88.2827 15.8966 86.9551 16.0753C87.3363 17.9461 88.854 29.397 89.2784 31.8119C90.3022 31.6763 90.8164 31.6287 91.8464 31.575C91.665 29.213 91.0875 17.6688 90.9555 15.6968Z" fill="white"/>
<path d="M85.2791 22.0713C84.1328 22.4613 83.0148 22.8742 81.8896 23.3232C82.3386 24.4483 84.8706 30.2129 85.8504 32.7563C86.8628 32.4165 87.3629 32.2201 88.2811 31.9499C87.5794 29.6873 85.7298 23.4385 85.2791 22.0713Z" fill="white"/>
<path d="M97.7013 16.0753C96.3737 15.8966 95.039 15.7698 93.7009 15.6968C93.5688 17.6688 92.9913 29.213 92.8091 31.575C93.8391 31.6287 94.3541 31.6754 95.3771 31.8119C95.8032 29.397 97.3201 17.9461 97.7013 16.0753Z" fill="white"/>
<path d="M102.766 23.3232C101.642 22.8742 100.524 22.4613 99.377 22.0713C98.9254 23.4385 97.0758 29.6873 96.375 31.9499C97.2932 32.2201 97.7933 32.4173 98.8057 32.7563C99.7847 30.2129 102.317 24.4483 102.766 23.3232Z" fill="white"/>
<path d="M116.372 27.7609V32.7464H113.353V23.3203H116.136V24.4789C116.512 24.0695 117.744 23.2085 119.741 23.2085C122.548 23.2085 123.033 25.5899 123.033 26.737V32.7569H120.014V27.7204C120.014 27.1006 119.794 25.8249 118.291 25.8249C116.621 25.8241 116.372 27.2696 116.372 27.7609Z" fill="white"/>
<path d="M70.9711 32.7587L82.7248 32.7596L81.3506 29.9169L76.1723 29.9178C76.1723 29.9178 79.4551 26.156 80.8664 24.2412C80.9949 24.0669 81.0134 23.8362 80.9139 23.6408C80.825 23.4656 80.663 23.3608 80.479 23.3608H70.7765L72.0971 26.2035H75.8888L70.596 31.8608C70.4261 32.0289 70.4358 32.2587 70.5018 32.418C70.5863 32.6249 70.7712 32.7587 70.9711 32.7587Z" fill="white"/>
<path d="M63.7977 25.4998L53.3337 15.0366C51.9516 13.6545 49.7154 13.6545 48.3333 15.0366L37.8701 25.4998C36.488 26.8767 36.488 29.1181 37.8701 30.5002L48.3333 40.9634C49.7154 42.3455 51.9516 42.3455 53.3337 40.9634L63.7977 30.5002C65.1799 29.1181 65.1799 26.8767 63.7977 25.4998ZM45.3937 34.5059C44.5996 32.4502 42.5545 27.7966 42.1927 26.8872C43.1021 26.5254 44.0071 26.1935 44.9315 25.8774C45.2986 26.9832 46.7909 32.0285 47.3587 33.8579C46.6148 34.0736 46.2125 34.2339 45.3937 34.5059ZM48.1625 33.7417C47.8156 31.7917 46.5945 22.5444 46.2829 21.0319C47.3587 20.8858 48.4336 20.7854 49.5147 20.7255C49.6256 22.319 50.0878 31.6465 50.2384 33.5507C49.4038 33.5956 48.9874 33.6308 48.1625 33.7417ZM53.0881 33.7417C52.2641 33.6308 51.8468 33.5956 51.0122 33.5507C51.1628 31.6456 51.6249 22.3181 51.7359 20.7255C52.8161 20.7863 53.8919 20.8867 54.9677 21.0319C54.656 22.5444 53.4297 31.7917 53.0881 33.7417ZM55.8569 34.5059C55.0372 34.2347 54.6358 34.0736 53.8919 33.8579C54.4597 32.0285 55.9528 26.9832 56.319 25.8774C57.2434 26.1944 58.1484 26.5254 59.0579 26.8872C58.6916 27.7966 56.6457 32.4502 55.8569 34.5059Z" fill="white"/>
</g>
<defs>
<clipPath id="clip0_13044_40728">
<rect width="86.3333" height="28" fill="white" transform="translate(36.8335 14)"/>
</clipPath>
</defs>
</svg>
