<svg width="160" height="56" viewBox="0 0 160 56" fill="none" xmlns="http://www.w3.org/2000/svg">
<rect width="160" height="56" rx="8" fill="#262626"/>
<g clip-path="url(#clip0_13044_40715)">
<path fill-rule="evenodd" clip-rule="evenodd" d="M99.137 37.6091V36.4725H99.0987C98.5399 37.6283 97.519 37.9555 96.3249 37.9555C95.1498 37.9555 93.9557 37.5515 93.1854 36.6076C92.3185 35.5288 92.2222 34.6426 92.2222 33.3138V26.9189H95.4195V32.832C95.4195 34.0456 95.6893 34.9701 97.1338 34.9701C98.4629 34.9701 98.9636 34.0263 98.9636 32.7938V26.9189H102.161V37.6091H99.137Z" fill="white"/>
<path fill-rule="evenodd" clip-rule="evenodd" d="M109.526 29.5384C108.005 29.5384 106.868 30.7328 106.868 32.2352C106.868 33.7567 107.908 34.9895 109.469 34.9895C111.01 34.9895 112.146 33.7757 112.146 32.2542C112.146 30.7903 111.029 29.5384 109.526 29.5384ZM109.95 37.975C108.852 37.975 107.446 37.5125 106.888 36.4725H106.849V37.609H103.787V23.3555H106.984V27.7663C107.812 26.8802 108.891 26.553 110.085 26.553C110.856 26.553 111.626 26.7456 112.339 27.073C114.399 28.036 115.344 29.9814 115.344 32.1965C115.344 35.413 113.283 37.975 109.95 37.975Z" fill="white"/>
<path fill-rule="evenodd" clip-rule="evenodd" d="M87.4683 37.6091H90.6655V23.3555H87.4683V37.6091Z" fill="white"/>
<path fill-rule="evenodd" clip-rule="evenodd" d="M82.9943 33.1923C82.6163 34.1303 81.6983 34.7947 80.6267 34.7947C79.219 34.7947 78.0741 33.6498 78.0741 32.2421C78.0741 30.8347 79.219 29.6895 80.6267 29.6895C81.736 29.6895 82.68 30.4024 83.0309 31.3928H86.2765C85.8649 28.6441 83.4884 26.5293 80.6267 26.5293C77.4765 26.5293 74.9136 29.0923 74.9136 32.2421C74.9136 35.3925 77.4765 37.9552 80.6267 37.9552C83.4533 37.9552 85.8057 35.8918 86.2595 33.1923H82.9943Z" fill="white"/>
<path fill-rule="evenodd" clip-rule="evenodd" d="M71.9948 18.0947C68.8447 18.0947 66.2817 20.6577 66.2817 23.8078C66.2817 26.9579 68.8447 29.5207 71.9948 29.5207C75.1452 29.5207 77.7081 26.9579 77.7081 23.8078C77.7081 20.6577 75.1452 18.0947 71.9948 18.0947ZM71.9948 21.2552C73.4025 21.2552 74.5477 22.4002 74.5477 23.8078C74.5477 25.2152 73.4025 26.3604 71.9948 26.3604C70.5874 26.3604 69.4422 25.2152 69.4422 23.8078C69.4422 22.4002 70.5874 21.2552 71.9948 21.2552Z" fill="white"/>
<path fill-rule="evenodd" clip-rule="evenodd" d="M48.5091 18.4961C48.5091 20.0852 47.2209 21.5247 45.6318 21.5247H44.7241V24.105H48.171L48.1723 37.6178H51.3328V18.4963L48.5091 18.4961Z" fill="white"/>
<path fill-rule="evenodd" clip-rule="evenodd" d="M85.107 18.2871L66.604 36.7901L67.5929 37.779L86.0958 19.2762L85.107 18.2871Z" fill="white"/>
<path fill-rule="evenodd" clip-rule="evenodd" d="M63.4007 28.4174C64.462 27.3209 65.1173 25.8288 65.1173 24.1856C65.1173 20.8273 62.3849 18.0947 59.0259 18.0947C55.6677 18.0947 52.9351 20.8273 52.9351 24.1856H56.0958C56.0958 22.5698 57.4101 21.2552 59.0259 21.2552C60.642 21.2552 61.9568 22.5698 61.9568 24.1856C61.9568 24.9572 61.6546 25.6582 61.1652 26.1821L53.2793 34.4113V37.6088H64.6731V34.4113H57.4227L63.4007 28.4174Z" fill="white"/>
</g>
<defs>
<clipPath id="clip0_13044_40715">
<rect width="70.8642" height="20" fill="white" transform="translate(44.5679 18)"/>
</clipPath>
</defs>
</svg>
