<svg width="160" height="56" viewBox="0 0 160 56" fill="none" xmlns="http://www.w3.org/2000/svg">
<rect width="160" height="56" rx="8" fill="#262626"/>
<path d="M42.4649 34.3535C41.761 34.3902 41.0576 34.2729 40.4057 34.01C39.7537 33.7471 39.1694 33.3453 38.6951 32.8335V38.0002H35V21.7268H38.4981V23.0602H38.566C39.0271 22.4911 39.6172 22.0356 40.2894 21.73C40.9616 21.4244 41.6973 21.2772 42.4377 21.3002C46.2958 21.3002 48.5102 24.4002 48.5102 27.9668C48.5102 31.3602 46.0921 34.3535 42.4649 34.3535ZM41.677 24.7202C41.0485 24.7123 40.4318 24.8878 39.9051 25.2244C39.3785 25.5611 38.9656 26.0437 38.7188 26.6111C38.4721 27.1784 38.4026 27.8049 38.5193 28.4111C38.636 29.0173 38.9335 29.5757 39.374 30.0157C39.8146 30.4556 40.3785 30.7572 40.994 30.8821C41.6095 31.007 42.2489 30.9496 42.8311 30.7173C43.4134 30.4849 43.9121 30.088 44.2641 29.5769C44.6162 29.0659 44.8056 28.4637 44.8083 27.8468C44.8212 27.4373 44.7494 27.0295 44.5973 26.6479C44.4452 26.2664 44.2159 25.9191 43.9233 25.6269C43.6307 25.3347 43.2808 25.1037 42.8947 24.9479C42.5086 24.792 42.0944 24.7146 41.677 24.7202Z" fill="white"/>
<path d="M55.6149 34.3067C54.3105 34.2896 53.0405 33.894 51.9647 33.1697C50.889 32.4455 50.0557 31.425 49.5698 30.2367C49.0839 29.0485 48.9672 27.7457 49.2343 26.4925C49.5014 25.2392 50.1404 24.0916 51.0708 23.1942C52.0012 22.2967 53.1814 21.6896 54.4628 21.4493C55.7441 21.209 57.0692 21.3462 58.2712 21.8437C59.4733 22.3411 60.4984 23.1766 61.2175 24.2449C61.9366 25.3131 62.3175 26.5664 62.3123 27.8467C62.3256 28.7083 62.1606 29.5636 61.8273 30.3607C61.494 31.1579 60.9992 31.8804 60.3731 32.4843C59.7469 33.0883 59.0023 33.5613 58.1844 33.8745C57.3666 34.1878 56.4924 34.3348 55.6149 34.3067ZM55.6149 24.7401C54.9879 24.7081 54.3654 24.8612 53.8278 25.1795C53.2901 25.4977 52.8618 25.9667 52.598 26.526C52.3343 27.0852 52.2471 27.7092 52.3478 28.3175C52.4485 28.9258 52.7324 29.4906 53.1629 29.9391C53.5935 30.3877 54.151 30.6995 54.7636 30.8344C55.3763 30.9693 56.0161 30.9211 56.6006 30.696C57.1851 30.471 57.6876 30.0793 58.0434 29.5715C58.3992 29.0637 58.5919 28.463 58.5968 27.8467C58.6122 27.4498 58.547 27.0538 58.4049 26.6818C58.2628 26.3098 58.0467 25.9693 57.7691 25.6802C57.4916 25.391 57.1582 25.159 56.7883 24.9976C56.4185 24.8362 56.0196 24.7486 55.6149 24.7401Z" fill="white"/>
<path d="M67.556 34.3535C64.9613 34.3535 62.8013 32.9868 62.4956 30.3068H66.1907C66.2317 30.6371 66.4021 30.9388 66.6658 31.1479C66.9296 31.3569 67.2659 31.457 67.6035 31.4268C68.1605 31.4268 68.9009 31.1201 68.9009 30.4802C68.9009 29.6002 67.8956 29.3402 67.2232 29.0735C66.6865 28.9002 66.1432 28.7202 65.6065 28.5268C64.1326 27.9935 62.6518 27.0535 62.6518 25.3335C62.6518 22.7868 65.0699 21.3335 67.4677 21.3335C69.8654 21.3335 71.9915 22.5868 72.2224 25.1802H68.5816C68.5816 24.5135 68.0654 24.2535 67.4133 24.2535C66.9243 24.2535 66.3605 24.5202 66.3605 25.0668C66.3605 26.9802 72.6164 25.9068 72.6164 30.2135C72.6571 32.9468 70.0896 34.3535 67.556 34.3535Z" fill="white"/>
<path d="M88.3546 34.3535C87.6556 34.3835 86.9583 34.2629 86.3117 34.0004C85.6652 33.7378 85.085 33.3395 84.612 32.8335V38.0002H80.8965V21.7269H84.3878V23.0602H84.4557C84.9199 22.4929 85.5117 22.0388 86.1845 21.7335C86.8574 21.4281 87.5932 21.2798 88.3342 21.3002C92.1855 21.3002 94.4067 24.4002 94.4067 27.9668C94.3931 31.3602 91.9886 34.3535 88.3546 34.3535ZM87.6006 24.7202C86.9704 24.703 86.3492 24.8705 85.8164 25.2013C85.2835 25.5322 84.8633 26.0114 84.6092 26.5778C84.3552 27.1442 84.2788 27.772 84.39 28.3811C84.5011 28.9903 84.7947 29.5531 85.2332 29.9977C85.6717 30.4423 86.2353 30.7486 86.852 30.8774C87.4687 31.0063 88.1105 30.9518 88.6955 30.721C89.2806 30.4901 89.7822 30.0934 90.1364 29.5815C90.4907 29.0696 90.6815 28.4657 90.6844 27.8468C90.6962 27.4415 90.6252 27.038 90.4757 26.66C90.3262 26.2819 90.1011 25.9371 89.8138 25.6458C89.5264 25.3544 89.1826 25.1224 88.8025 24.9635C88.4224 24.8045 88.0138 24.7218 87.6006 24.7202Z" fill="white"/>
<path d="M107.713 28.94H98.3939C98.5006 29.6116 98.858 30.2204 99.3965 30.6479C99.935 31.0754 100.616 31.2912 101.308 31.2533C101.752 31.2615 102.192 31.161 102.587 30.9608C102.981 30.7607 103.319 30.4671 103.57 30.1066H107.38C106.3 32.5466 104.106 34.3333 101.308 34.3333C99.983 34.3609 98.6801 33.9986 97.5669 33.2931C96.4538 32.5875 95.5813 31.571 95.0618 30.3746C94.5424 29.1781 94.3999 27.8564 94.6525 26.5796C94.9051 25.3029 95.5414 24.1297 96.4794 23.211C97.4174 22.2923 98.6141 21.6703 99.9154 21.425C101.217 21.1797 102.563 21.3224 103.781 21.8347C104.999 22.347 106.033 23.2055 106.749 24.2995C107.466 25.3936 107.832 26.6731 107.801 27.9733C107.806 28.2977 107.777 28.6216 107.713 28.94ZM101.26 24.3933C100.614 24.3625 99.9777 24.5591 99.4659 24.9478C98.9541 25.3364 98.6005 25.8915 98.4686 26.5133H104.113C103.972 25.8847 103.607 25.326 103.085 24.9375C102.562 24.549 101.915 24.356 101.26 24.3933Z" fill="white"/>
<path d="M79.5517 25.4267V21.6333H77.3034V18H73.4385V29.6133C73.4474 30.8483 73.9512 32.0302 74.8409 32.9035C75.7307 33.7768 76.9349 34.2713 78.1932 34.28H79.5517V30.5133H78.1932C77.9482 30.5133 77.7132 30.4178 77.54 30.2478C77.3667 30.0777 77.2694 29.8471 77.2694 29.6067V25.4267H79.5517Z" fill="white"/>
<path d="M110.321 34.3065C111.713 34.3065 112.841 33.1992 112.841 31.8332C112.841 30.4672 111.713 29.3599 110.321 29.3599C108.93 29.3599 107.801 30.4672 107.801 31.8332C107.801 33.1992 108.93 34.3065 110.321 34.3065Z" fill="#009CDE"/>
<path d="M116.401 34.3065C117.793 34.3065 118.921 33.1992 118.921 31.8332C118.921 30.4672 117.793 29.3599 116.401 29.3599C115.009 29.3599 113.881 30.4672 113.881 31.8332C113.881 33.1992 115.009 34.3065 116.401 34.3065Z" fill="#6B4795"/>
<path d="M122.48 34.3065C123.872 34.3065 125 33.1992 125 31.8332C125 30.4672 123.872 29.3599 122.48 29.3599C121.088 29.3599 119.96 30.4672 119.96 31.8332C119.96 33.1992 121.088 34.3065 122.48 34.3065Z" fill="#E73178"/>
</svg>
